<?xml version="1.0" encoding="iso-8859-1"?>
<!-- Generator: Adobe Illustrator 19.0.0, SVG Export Plug-In . SVG Version: 6.00 Build 0)  -->
<svg version="1.1" id="Layer_1" xmlns="http://www.w3.org/2000/svg" xmlns:xlink="http://www.w3.org/1999/xlink" x="0px" y="0px"
	 viewBox="0 0 512 512" style="enable-background:new 0 0 512 512;" xml:space="preserve">
<circle style="fill:#FFAD38;" cx="256" cy="256" r="256"/>
<g>
	<path style="fill:#FCDE65;" d="M256,462.488c-20.408,0-40.58-2.985-59.953-8.874c-4.459-1.356-6.976-6.07-5.621-10.529
		c1.355-4.458,6.07-6.978,10.529-5.621c17.782,5.405,36.301,8.145,55.045,8.145c19.196,0,38.143-2.872,56.317-8.536
		c4.449-1.387,9.182,1.096,10.569,5.545c1.386,4.449-1.096,9.182-5.545,10.569C297.538,459.359,276.901,462.488,256,462.488z"/>
	<path style="fill:#FCDE65;" d="M423.578,158.975c-2.8,0-5.539-1.392-7.144-3.934c-35.06-55.51-95.035-88.65-160.434-88.65
		s-125.374,33.14-160.435,88.65c-2.489,3.941-7.7,5.118-11.643,2.629c-3.941-2.489-5.118-7.701-2.629-11.643
		c18.291-28.959,43.712-53.158,73.513-69.98C185.562,58.688,220.554,49.512,256,49.512s70.438,9.175,101.193,26.536
		c29.801,16.822,55.222,41.021,73.513,69.98c2.489,3.941,1.312,9.153-2.629,11.643C426.678,158.555,425.12,158.975,423.578,158.975z
		"/>
</g>
<path style="fill:#FD9A0C;" d="M256,432.668c-97.415,0-176.668-79.253-176.668-176.668S158.585,79.332,256,79.332
	S432.668,158.585,432.668,256S353.415,432.668,256,432.668z M256,96.211c-88.108,0-159.789,71.681-159.789,159.789
	S167.892,415.789,256,415.789S415.789,344.108,415.789,256S344.108,96.211,256,96.211z"/>
<polygon style="fill:#FCDE65;" points="256,123.78 281.067,136.991 273.676,155.007 256,155.007 238.324,155.007 230.933,136.991 
	"/>
<g>
	<path style="fill:#FD9A0C;" d="M183.654,146.321c-2.33-4.036-7.493-5.419-11.528-3.089c-4.036,2.33-5.419,7.492-3.089,11.528
		l37.181,64.399l14.617-8.44L183.654,146.321z"/>
	<path style="fill:#FD9A0C;" d="M339.876,143.232c-4.038-2.332-9.198-0.947-11.528,3.089l-37.181,64.399l14.617,8.44l37.181-64.399
		C345.295,150.724,343.912,145.562,339.876,143.232z"/>
</g>
<g>
	<circle style="fill:#CA7B0A;" cx="256" cy="28.132" r="8.44"/>
	<circle style="fill:#CA7B0A;" cx="208.626" cy="33.111" r="8.44"/>
	<circle style="fill:#CA7B0A;" cx="163.322" cy="47.832" r="8.44"/>
	<circle style="fill:#CA7B0A;" cx="122.059" cy="71.646" r="8.44"/>
	<circle style="fill:#CA7B0A;" cx="86.657" cy="103.525" r="8.44"/>
	<circle style="fill:#CA7B0A;" cx="58.661" cy="142.066" r="8.44"/>
	<circle style="fill:#CA7B0A;" cx="39.284" cy="185.58" r="8.44"/>
	<circle style="fill:#CA7B0A;" cx="29.381" cy="232.178" r="8.44"/>
	<circle style="fill:#CA7B0A;" cx="29.381" cy="279.822" r="8.44"/>
	<circle style="fill:#CA7B0A;" cx="39.284" cy="326.42" r="8.44"/>
	<circle style="fill:#CA7B0A;" cx="58.661" cy="369.934" r="8.44"/>
	<circle style="fill:#CA7B0A;" cx="86.657" cy="408.475" r="8.44"/>
	<circle style="fill:#CA7B0A;" cx="122.059" cy="440.354" r="8.44"/>
	<circle style="fill:#CA7B0A;" cx="163.322" cy="464.165" r="8.44"/>
	<circle style="fill:#CA7B0A;" cx="208.626" cy="478.883" r="8.44"/>
	<circle style="fill:#CA7B0A;" cx="256" cy="483.868" r="8.44"/>
	<circle style="fill:#CA7B0A;" cx="303.374" cy="478.883" r="8.44"/>
	<circle style="fill:#CA7B0A;" cx="348.678" cy="464.165" r="8.44"/>
	<circle style="fill:#CA7B0A;" cx="389.941" cy="440.354" r="8.44"/>
	<circle style="fill:#CA7B0A;" cx="425.343" cy="408.475" r="8.44"/>
	<circle style="fill:#CA7B0A;" cx="453.339" cy="369.934" r="8.44"/>
	<circle style="fill:#CA7B0A;" cx="472.717" cy="326.42" r="8.44"/>
	<circle style="fill:#CA7B0A;" cx="482.619" cy="279.822" r="8.44"/>
	<circle style="fill:#CA7B0A;" cx="482.619" cy="232.178" r="8.44"/>
	<circle style="fill:#CA7B0A;" cx="472.717" cy="185.58" r="8.44"/>
	<circle style="fill:#CA7B0A;" cx="453.339" cy="142.066" r="8.44"/>
	<circle style="fill:#CA7B0A;" cx="425.343" cy="103.525" r="8.44"/>
	<circle style="fill:#CA7B0A;" cx="389.941" cy="71.646" r="8.44"/>
	<circle style="fill:#CA7B0A;" cx="348.678" cy="47.832" r="8.44"/>
	<circle style="fill:#CA7B0A;" cx="303.374" cy="33.111" r="8.44"/>
	<circle style="fill:#CA7B0A;" cx="122.059" cy="401.757" r="8.44"/>
	<circle style="fill:#CA7B0A;" cx="389.941" cy="401.757" r="8.44"/>
</g>
<path style="fill:#FCDE65;" d="M300.263,203.886c-18.184,0-34.274-8.875-44.263-22.446c-10.07,13.571-26.121,22.446-44.3,22.446
	c-18.183,0-34.272-8.875-44.262-22.446v138.112c0,67.51,58.911,51.173,88.563,72.315c29.651-21.142,88.563-4.805,88.563-72.315
	V181.44C334.534,195.01,318.441,203.886,300.263,203.886z"/>
<g>
	<path style="fill:#FD9A0C;" d="M256,400.306c-4.661,0-8.44-3.779-8.44-8.44V181.44c0-4.661,3.779-8.44,8.44-8.44
		c4.661,0,8.44,3.779,8.44,8.44v210.426C264.44,396.528,260.661,400.306,256,400.306z"/>
	<path style="fill:#FD9A0C;" d="M344.563,296.948H167.438c-4.661,0-8.44-3.779-8.44-8.44s3.779-8.44,8.44-8.44h177.124
		c4.661,0,8.44,3.779,8.44,8.44S349.223,296.948,344.563,296.948z"/>
</g>
<polygon style="fill:#FFAD38;" points="256,222.117 275.167,255.31 313.496,255.312 294.334,288.508 313.496,321.704 
	275.167,321.706 256,354.899 236.833,321.706 198.504,321.704 217.666,288.508 198.504,255.312 236.833,255.31 "/>
<path style="fill:#FCDE65;" d="M267.246,280.069h-2.806v-2.806c0-4.661-3.779-8.44-8.44-8.44c-4.661,0-8.44,3.779-8.44,8.44v2.806
	h-2.806c-4.661,0-8.44,3.779-8.44,8.44s3.779,8.44,8.44,8.44h2.806v2.806c0,4.661,3.779,8.44,8.44,8.44
	c4.661,0,8.44-3.779,8.44-8.44v-2.806h2.806c4.661,0,8.44-3.779,8.44-8.44S271.907,280.069,267.246,280.069z"/>
<g>
</g>
<g>
</g>
<g>
</g>
<g>
</g>
<g>
</g>
<g>
</g>
<g>
</g>
<g>
</g>
<g>
</g>
<g>
</g>
<g>
</g>
<g>
</g>
<g>
</g>
<g>
</g>
<g>
</g>
</svg>
